<?xml version="1.0" encoding="utf-8"?>
<!-- Generator: Adobe Illustrator 24.1.3, SVG Export Plug-In . SVG Version: 6.00 Build 0)  -->
<svg version="1.1" id="Camada_1" xmlns="http://www.w3.org/2000/svg" xmlns:xlink="http://www.w3.org/1999/xlink" x="0px" y="0px"
	 viewBox="0 0 226 226" style="enable-background:new 0 0 226 226;" xml:space="preserve">
<style type="text/css">
	.st0{fill:#D40005;}
	.st1{fill:#28A745;}
	.st2{fill:#FFFFFF;}
</style>
<g>
	<g>
		<path class="st0" d="M224.8,113.3c0.1,62.8-52.3,112.8-112,111.3C52.8,225.8,1.1,175.4,1.3,113.2C1.4,51.3,51.5,1.4,113.8,1.4
			C174.6,1.4,224.7,52,224.8,113.3z"/>
	</g>
	<g>
		<path class="st1" d="M224.8,113.3c0.1,62.8-52.3,112.8-112,111.3C52.8,225.8,1.1,175.4,1.3,113.2C1.4,51.3,51.5,1.4,113.8,1.4
			C174.6,1.4,224.7,52,224.8,113.3z"/>
	</g>
</g>
<polygon class="st2" points="178,82.5 113.9,146.5 113.8,146.4 95.2,164.9 48,117.8 69.4,96.3 95.3,122.4 156.6,61.1 "/>
</svg>
