<?xml version="1.0" encoding="utf-8"?>
<!-- Generator: Adobe Illustrator 24.1.3, SVG Export Plug-In . SVG Version: 6.00 Build 0)  -->
<svg version="1.1" id="Camada_1" xmlns="http://www.w3.org/2000/svg" xmlns:xlink="http://www.w3.org/1999/xlink" x="0px" y="0px"
	 viewBox="0 0 226 226" style="enable-background:new 0 0 226 226;" xml:space="preserve">
<style type="text/css">
	.st0{fill:#D40005;}
	.st1{fill:#DC3545;}
</style>
<g>
	<g>
		<path d="M112.7,224.6C52.8,225.8,1.1,175.4,1.3,113.2C1.4,51.3,51.5,1.4,113.8,1.4c60.8,0,110.9,50.6,111,111.8
			C224.8,176.1,172.4,226.1,112.7,224.6z M96.6,40.1c0,33.5,0,66.7,0,99.9c11.2,0,21.9,0,32.8,0c0-33.5,0-66.6,0-99.9
			C118.2,40.1,107.4,40.1,96.6,40.1z M130.7,174.3c0-10-7.6-17.9-17.5-18c-10.1-0.1-17.9,7.8-17.9,18.1c0,10,7.7,17.7,17.7,17.7
			C123.1,192.1,130.7,184.5,130.7,174.3z"/>
	</g>
	<g>
		<g>
			<path class="st0" d="M112.7,224.6C52.8,225.8,1.1,175.4,1.3,113.2C1.4,51.3,51.5,1.4,113.8,1.4c60.8,0,110.9,50.6,111,111.8
				C224.8,176.1,172.4,226.1,112.7,224.6z M96.6,40.1c0,33.5,0,66.7,0,99.9c11.2,0,21.9,0,32.8,0c0-33.5,0-66.6,0-99.9
				C118.2,40.1,107.4,40.1,96.6,40.1z M130.7,174.3c0-10-7.6-17.9-17.5-18c-10.1-0.1-17.9,7.8-17.9,18.1c0,10,7.7,17.7,17.7,17.7
				C123.1,192.1,130.7,184.5,130.7,174.3z"/>
		</g>
		<g>
			<path class="st1" d="M112.7,224.6C52.8,225.8,1.1,175.4,1.3,113.2C1.4,51.3,51.5,1.4,113.8,1.4c60.8,0,110.9,50.6,111,111.8
				C224.8,176.1,172.4,226.1,112.7,224.6z M96.6,40.1c0,33.5,0,66.7,0,99.9c11.2,0,21.9,0,32.8,0c0-33.5,0-66.6,0-99.9
				C118.2,40.1,107.4,40.1,96.6,40.1z M130.7,174.3c0-10-7.6-17.9-17.5-18c-10.1-0.1-17.9,7.8-17.9,18.1c0,10,7.7,17.7,17.7,17.7
				C123.1,192.1,130.7,184.5,130.7,174.3z"/>
		</g>
	</g>
</g>
</svg>
